<?xml version="1.0" encoding="utf-8"?>
<!-- Generator: Adobe Illustrator 27.2.0, SVG Export Plug-In . SVG Version: 6.00 Build 0)  -->
<svg version="1.1" id="eye" xmlns="http://www.w3.org/2000/svg" xmlns:xlink="http://www.w3.org/1999/xlink" x="0px" y="0px"
	 viewBox="0 0 18.3 16" style="enable-background:new 0 0 18.3 16;" xml:space="preserve">
<style type="text/css">
	.st0{fill-opacity:0.75;}
</style>
<path class="st0" d="M9.1,5.1h0.1c0.7,0,1.3,0.2,1.8,0.7c0.5,0.5,0.7,1.1,0.7,1.8v0.2L9.1,5.1z M5.5,5.8C5.2,6.4,5,7,5,7.6
	c0,1.1,0.4,2.1,1.2,3c0.8,0.8,1.8,1.2,3,1.2c0.6,0,1.2-0.2,1.8-0.5l-1.3-1.3c-0.2,0.1-0.4,0.1-0.5,0.1c-0.7,0-1.3-0.2-1.8-0.7
	S6.7,8.3,6.7,7.6c0-0.2,0-0.3,0.1-0.5L5.5,5.8z M0.9,1.2l1.1-1.1l14.8,14.8L15.6,16c-0.1-0.1-0.5-0.5-1.2-1.2
	c-0.7-0.7-1.2-1.2-1.6-1.6c-1.1,0.5-2.3,0.7-3.6,0.7c-2.1,0-3.9-0.6-5.6-1.7C1.9,11,0.7,9.5,0,7.6C0.3,7,0.7,6.2,1.3,5.4
	C2,4.6,2.6,3.9,3.1,3.5C2.8,3.2,2.4,2.7,1.8,2.2C1.2,1.6,0.9,1.3,0.9,1.2z M9.2,3.5c-0.5,0-1,0.1-1.5,0.3L5.9,2
	c1-0.4,2.1-0.6,3.3-0.6c2.1,0,3.9,0.6,5.5,1.7c1.7,1.1,2.9,2.7,3.6,4.5c-0.6,1.5-1.6,2.9-2.9,3.9L13,9.2c0.2-0.5,0.3-1,0.3-1.5
	c0-1.1-0.4-2.1-1.2-2.9C11.3,3.9,10.3,3.5,9.2,3.5z" fill="currentColor" />
</svg>
