<svg width="20" height="21" viewBox="0 0 20 21" fill="none" xmlns="http://www.w3.org/2000/svg" id="telegram-icon">
<path d="M10 2.45898C11.1458 2.45898 12.2135 2.68034 13.2031 3.12305C14.2188 3.53971 15.1042 4.13867 15.8594 4.91992C16.6406 5.67513 17.2396 6.56055 17.6562 7.57617C18.099 8.56576 18.3203 9.63346 18.3203 10.7793C18.3203 11.9251 18.099 13.0059 17.6562 14.0215C17.2396 15.0111 16.6406 15.8965 15.8594 16.6777C15.1042 17.4329 14.2188 18.0319 13.2031 18.4746C12.2135 18.8913 11.1458 19.0996 10 19.0996C8.85417 19.0996 7.77344 18.8913 6.75781 18.4746C5.76823 18.0319 4.88281 17.4329 4.10156 16.6777C3.34635 15.8965 2.7474 15.0111 2.30469 14.0215C1.88802 13.0059 1.67969 11.9251 1.67969 10.7793C1.67969 9.63346 1.88802 8.56576 2.30469 7.57617C2.7474 6.56055 3.34635 5.67513 4.10156 4.91992C4.88281 4.13867 5.76823 3.53971 6.75781 3.12305C7.77344 2.68034 8.85417 2.45898 10 2.45898ZM13.8672 8.12305C13.8672 8.04492 13.8672 7.97982 13.8672 7.92773C13.8672 7.87565 13.8672 7.83659 13.8672 7.81055C13.8672 7.70638 13.8281 7.62826 13.75 7.57617C13.6979 7.52409 13.6328 7.49805 13.5547 7.49805C13.5026 7.47201 13.4635 7.45898 13.4375 7.45898C13.3333 7.45898 13.1771 7.49805 12.9688 7.57617C12.7865 7.62826 12.487 7.73242 12.0703 7.88867C11.6797 8.04492 11.0938 8.2793 10.3125 8.5918C9.92188 8.77409 9.3099 9.04753 8.47656 9.41211C7.66927 9.75065 6.66667 10.1803 5.46875 10.7012C5.07812 10.8574 4.86979 11.0137 4.84375 11.1699C4.81771 11.3001 4.89583 11.4043 5.07812 11.4824C5.26042 11.5345 5.48177 11.6126 5.74219 11.7168C5.95052 11.7689 6.17188 11.834 6.40625 11.9121C6.66667 11.9642 6.875 12.0033 7.03125 12.0293C7.29167 12.0293 7.59115 11.9121 7.92969 11.6777C10.2214 10.1413 11.3932 9.37305 11.4453 9.37305C11.5495 9.34701 11.6146 9.34701 11.6406 9.37305C11.6667 9.42513 11.6797 9.47721 11.6797 9.5293C11.6536 9.55534 11.5625 9.64648 11.4062 9.80273C11.276 9.95898 11.0938 10.1413 10.8594 10.3496C10.651 10.5579 10.4297 10.7663 10.1953 10.9746C9.98698 11.1829 9.80469 11.3652 9.64844 11.5215C9.49219 11.6517 9.40104 11.7298 9.375 11.7559C9.21875 11.9121 9.07552 12.0684 8.94531 12.2246C8.8151 12.3548 8.75 12.485 8.75 12.6152C8.77604 12.7454 8.91927 12.9017 9.17969 13.084C9.54427 13.3184 9.85677 13.5267 10.1172 13.709C10.3776 13.8913 10.6901 14.0996 11.0547 14.334C11.2891 14.4902 11.4974 14.6465 11.6797 14.8027C11.888 14.9329 12.1094 14.985 12.3438 14.959C12.474 14.959 12.5911 14.8939 12.6953 14.7637C12.7995 14.6335 12.8776 14.4121 12.9297 14.0996C13.0078 13.735 13.0859 13.2793 13.1641 12.7324C13.2682 12.1855 13.3594 11.6257 13.4375 11.0527C13.5417 10.4538 13.6328 9.89388 13.7109 9.37305C13.7891 8.85221 13.8411 8.43555 13.8672 8.12305Z" fill="currentColor"/>
</svg>
