<svg width="355" height="431" viewBox="0 0 355 431" fill="none" xmlns="http://www.w3.org/2000/svg">
<g clip-path="url(#clip0_6_21163)">
<path d="M291.661 0.279297C194.441 48.2239 97.2203 96.1759 0 144.128C0.0294429 153.087 0.051525 162.053 0.0809679 171.012C0.051525 171.027 0.0294429 171.041 0 171.056C0.0294429 181.018 0.0588857 190.981 0.0956893 200.944C0.0662464 200.958 0.0294429 200.973 0 200.987C0.0294429 209.946 0.051525 218.913 0.0809679 227.872C0.051525 227.886 0.0294429 227.901 0 227.916C0.125132 269.89 0.257625 311.872 0.390118 353.846C20.7499 370.35 41.1096 386.847 61.4767 403.351C68.7712 399.476 76.073 395.601 83.3675 391.726C100.768 404.575 118.169 417.431 135.57 430.279C155.318 400.399 175.06 370.519 194.809 340.631C248.203 313.059 301.598 285.486 355 257.913V46.0336C333.889 30.7822 312.772 15.5307 291.661 0.279297ZM88.0194 368.233L82.0794 377.046H81.2476C81.0415 373.449 80.828 369.852 80.6219 366.255C80.0625 356.571 79.5031 346.894 78.9437 337.218C78.4947 329.519 78.053 321.812 77.604 314.113C77.5083 314.135 77.4127 314.135 77.3243 314.179L42.7584 331.328L19.8519 342.69L10.386 347.385V151.57L287.105 14.2928V210.108L148.12 279.054C132.574 302.122 117.035 325.182 101.49 348.25C96.9995 354.908 92.5095 361.575 88.0194 368.233Z" fill="#AE7AFF"/>
<path d="M43.0676 222.378V180.667L27.6543 188.285V168.902L80.784 142.648V162.031L65.3264 169.664V211.375L43.0603 222.378H43.0676Z" fill="#AE7AFF"/>
<path d="M43.0676 222.378V180.667L27.6543 188.285V168.902L80.784 142.648V162.031L65.3264 169.664V211.375L43.0603 222.378H43.0676Z" fill="white" fill-opacity="0.8"/>
<path d="M88.748 199.801V138.7L111.014 127.697V188.798L88.748 199.801Z" fill="#AE7AFF"/>
<path d="M88.748 199.801V138.7L111.014 127.697V188.798L88.748 199.801Z" fill="white" fill-opacity="0.8"/>
<path d="M160.883 164.156C158.175 159.584 155.937 156.31 154.185 154.325C152.433 152.34 150.733 151.146 149.091 150.75C147.45 150.354 145.448 150.655 143.078 151.658V172.961L120.812 183.963V122.862L143.078 111.86V132.144C145.22 130.891 147.03 129.294 148.517 127.367C150.004 125.441 151.498 122.752 153.015 119.31C154.524 115.867 156.437 110.797 158.749 104.117L183.238 92.0151C181.464 96.8645 179.911 100.967 178.571 104.314C177.231 107.662 175.87 110.739 174.486 113.537C173.102 116.335 171.814 118.643 170.629 120.445C169.444 122.254 168.097 123.932 166.58 125.492C165.064 127.045 163.54 128.364 162.002 129.441C160.464 130.517 158.624 131.623 156.482 132.766V137.791C158.933 136.693 161.06 135.887 162.863 135.367C164.659 134.847 166.419 134.605 168.126 134.642C169.841 134.678 171.365 135 172.705 135.616C174.044 136.231 175.457 137.264 176.944 138.722C178.431 140.18 179.874 141.923 181.287 143.967C182.7 146.011 184.305 148.589 186.101 151.702L160.883 164.163V164.156Z" fill="#AE7AFF"/>
<path d="M160.883 164.156C158.175 159.584 155.937 156.31 154.185 154.325C152.433 152.34 150.733 151.146 149.091 150.75C147.45 150.354 145.448 150.655 143.078 151.658V172.961L120.812 183.963V122.862L143.078 111.86V132.144C145.22 130.891 147.03 129.294 148.517 127.367C150.004 125.441 151.498 122.752 153.015 119.31C154.524 115.867 156.437 110.797 158.749 104.117L183.238 92.0151C181.464 96.8645 179.911 100.967 178.571 104.314C177.231 107.662 175.87 110.739 174.486 113.537C173.102 116.335 171.814 118.643 170.629 120.445C169.444 122.254 168.097 123.932 166.58 125.492C165.064 127.045 163.54 128.364 162.002 129.441C160.464 130.517 158.624 131.623 156.482 132.766V137.791C158.933 136.693 161.06 135.887 162.863 135.367C164.659 134.847 166.419 134.605 168.126 134.642C169.841 134.678 171.365 135 172.705 135.616C174.044 136.231 175.457 137.264 176.944 138.722C178.431 140.18 179.874 141.923 181.287 143.967C182.7 146.011 184.305 148.589 186.101 151.702L160.883 164.163V164.156Z" fill="white" fill-opacity="0.8"/>
<path d="M186.785 130.95V117.486L217.354 102.381V115.845L186.785 130.95Z" fill="#AE7AFF"/>
<path d="M186.785 130.95V117.486L217.354 102.381V115.845L186.785 130.95Z" fill="white" fill-opacity="0.8"/>
<path d="M43.0676 305.887V264.176L27.6543 271.795V252.412L80.784 226.158V245.541L65.3264 253.174V294.884L43.0603 305.887H43.0676Z" fill="#AE7AFF"/>
<path d="M43.0676 305.887V264.176L27.6543 271.795V252.412L80.784 226.158V245.541L65.3264 253.174V294.884L43.0603 305.887H43.0676Z" fill="white" fill-opacity="0.8"/>
<path d="M102.064 276.732L79.0322 288.115L100.224 216.547L126.722 203.449L147.914 254.074L124.882 265.458L122.784 259.59L104.162 268.791L102.064 276.732ZM107.886 251.957L119.104 246.412C118.044 242.984 117.315 239.973 116.896 237.365C116.484 234.757 116.219 231.307 116.101 227.022L110.838 229.622C110.691 234.069 110.433 237.79 110.043 240.794C109.653 243.797 108.939 247.518 107.879 251.957H107.886Z" fill="#AE7AFF"/>
<path d="M102.064 276.732L79.0322 288.115L100.224 216.547L126.722 203.449L147.914 254.074L124.882 265.458L122.784 259.59L104.162 268.791L102.064 276.732ZM107.886 251.957L119.104 246.412C118.044 242.984 117.315 239.973 116.896 237.365C116.484 234.757 116.219 231.307 116.101 227.022L110.838 229.622C110.691 234.069 110.433 237.79 110.043 240.794C109.653 243.797 108.939 247.518 107.879 251.957H107.886Z" fill="white" fill-opacity="0.8"/>
<path d="M154.163 250.991V189.89L176.429 178.887V220.598L197.532 210.166V229.549L154.163 250.976V250.991Z" fill="#AE7AFF"/>
<path d="M154.163 250.991V189.89L176.429 178.887V220.598L197.532 210.166V229.549L154.163 250.976V250.991Z" fill="white" fill-opacity="0.8"/>
<path d="M245.443 205.888C242.734 201.317 240.496 198.043 238.745 196.058C236.993 194.072 235.292 192.878 233.651 192.483C232.01 192.087 230.007 192.387 227.637 193.391V214.693L205.371 225.696V164.595L227.637 153.592V173.876C229.779 172.624 231.59 171.027 233.077 169.1C234.564 167.174 236.058 164.485 237.574 161.042C239.083 157.599 240.997 152.53 243.308 145.849L267.797 133.748C266.023 138.597 264.47 142.699 263.131 146.047C261.791 149.395 260.429 152.471 259.045 155.27C257.662 158.068 256.373 160.376 255.196 162.178C254.011 163.987 252.664 165.664 251.147 167.225C249.631 168.778 248.107 170.096 246.569 171.173C245.031 172.25 243.19 173.356 241.048 174.499V179.524C243.5 178.425 245.627 177.62 247.43 177.099C249.226 176.579 250.985 176.338 252.693 176.374C254.408 176.411 255.932 176.733 257.271 177.348C258.611 177.964 260.024 178.997 261.511 180.454C262.998 181.912 264.441 183.656 265.854 185.699C267.267 187.743 268.872 190.322 270.668 193.435L245.45 205.896L245.443 205.888Z" fill="#AE7AFF"/>
<path d="M245.443 205.888C242.734 201.317 240.496 198.043 238.745 196.058C236.993 194.072 235.292 192.878 233.651 192.483C232.01 192.087 230.007 192.387 227.637 193.391V214.693L205.371 225.696V164.595L227.637 153.592V173.876C229.779 172.624 231.59 171.027 233.077 169.1C234.564 167.174 236.058 164.485 237.574 161.042C239.083 157.599 240.997 152.53 243.308 145.849L267.797 133.748C266.023 138.597 264.47 142.699 263.131 146.047C261.791 149.395 260.429 152.471 259.045 155.27C257.662 158.068 256.373 160.376 255.196 162.178C254.011 163.987 252.664 165.664 251.147 167.225C249.631 168.778 248.107 170.096 246.569 171.173C245.031 172.25 243.19 173.356 241.048 174.499V179.524C243.5 178.425 245.627 177.62 247.43 177.099C249.226 176.579 250.985 176.338 252.693 176.374C254.408 176.411 255.932 176.733 257.271 177.348C258.611 177.964 260.024 178.997 261.511 180.454C262.998 181.912 264.441 183.656 265.854 185.699C267.267 187.743 268.872 190.322 270.668 193.435L245.45 205.896L245.443 205.888Z" fill="white" fill-opacity="0.8"/>
<g clip-path="url(#clip1_6_21163)">
<mask id="mask0_6_21163" style="mask-type:luminance" maskUnits="userSpaceOnUse" x="10" y="8" width="63" height="63">
<path d="M71.9998 8.27919L10 8.45361L10.1744 70.4534L72.1742 70.2789L71.9998 8.27919Z" fill="white"/>
</mask>
<g mask="url(#mask0_6_21163)">
<path d="M41.1743 70.3662C40.1942 41 39.4584 40.273 10.0872 39.4535C39.4533 38.4734 40.1805 37.7376 40.9999 8.3664C41.9799 37.7325 42.7158 38.4597 72.087 39.2791C42.7208 40.2638 41.9937 40.986 41.1743 70.3662Z" fill="#AE7AFF"/>
</g>
</g>
</g>
<defs>
<clipPath id="clip0_6_21163">
<rect width="355" height="430" fill="white" transform="translate(0 0.279297)"/>
</clipPath>
<clipPath id="clip1_6_21163">
<rect width="62" height="62" fill="white" transform="translate(10 8.45361) rotate(-0.161186)"/>
</clipPath>
</defs>
</svg>
